<svg width="255" height="233" viewBox="0 0 255 233" fill="none" xmlns="http://www.w3.org/2000/svg">
<path d="M241.042 120.589C241.042 120.589 264.9 151.704 203.454 192.424C142.006 233.142 56.3402 246.615 39.293 202.766C22.2458 158.915 38.162 171.898 103.66 164.393C169.157 156.888 212.767 88.7832 223.305 96.2059C233.838 103.631 241.042 120.589 241.042 120.589Z" fill="#F9A332"/>
<path d="M92.1914 224.205C73.7001 224.205 58.018 219.842 48.0107 210.191C52.4381 208.101 55.9434 205.979 58.8722 204.207C62.2103 202.187 64.9143 200.55 66.5936 200.55C66.7733 200.55 66.9416 200.569 67.0975 200.608C67.9506 200.823 68.8489 201.747 69.8435 203.433C72.7215 208.309 76.6505 210.975 80.948 210.975C81.1208 210.975 81.2937 210.97 81.4677 210.962C86.0171 210.742 90.2128 207.438 92.6919 202.125C94.1621 198.974 96.0819 197.06 98.56 196.273C99.4786 195.982 100.504 195.836 101.63 195.836C105.767 195.836 111.293 197.798 118.113 201.699C118.14 201.713 118.163 201.727 118.188 201.741C121.025 203.426 124.206 204.448 127.964 204.545C128.272 204.554 128.575 204.557 128.874 204.557C139.269 204.557 144.174 199.804 147.138 196.931C147.91 196.183 149.077 195.053 149.47 195.021C149.474 195.021 149.819 195.072 150.601 195.854C147.113 199.941 139.949 207.863 129.004 207.863C124.308 207.863 118.916 206.403 112.822 202.557C110.144 200.868 107.402 200.163 104.925 200.163C97.8503 200.163 92.9293 205.921 97.8187 210.959C99.8289 213.03 103.868 213.75 108.511 213.75C116.015 213.75 125.095 211.869 129.723 210.771C139.014 208.502 148.485 205.487 157.897 201.807C159.618 202.573 161.379 202.978 163.042 202.978C164.688 202.978 166.238 202.581 167.56 201.746C168.687 201.034 170.486 199.425 170.948 196.255C182.159 191.099 193.131 185.03 203.453 178.19C227.431 162.299 238.418 147.874 242.902 136.187C242.925 138.027 242.785 140.029 242.413 142.181C241.808 145.687 240.637 149.236 238.918 152.815C232.942 162.818 222.145 174.314 203.453 186.701C168.507 209.859 125.726 224.205 92.1914 224.205ZM168.993 186.429C168.884 186.182 168.769 185.933 168.649 185.679C168.263 184.858 167.911 183.994 167.597 183.089C167.652 183.089 167.702 183.089 167.756 183.089C179.705 183.089 184.253 177.179 189.762 170.02C191.709 167.489 193.721 164.873 196.304 162.116C200.962 157.142 208.094 156.839 214.992 156.546C219.529 156.354 223.877 156.169 227.184 154.535C219.146 162.516 208.565 154.528 202.234 164.552C195.032 175.954 188.63 183.955 175.029 185.555C172.818 185.815 170.816 186.103 168.993 186.429ZM232.72 145.381C232.754 144.766 232.754 144.122 232.724 143.449C232.484 138.021 232.455 134.317 233.044 132.627C233.362 131.713 233.774 131.472 235.954 130.523C237.387 129.897 239.223 129.096 241.515 127.666C241.846 128.672 242.151 129.81 242.394 131.073C233.406 133.231 236.91 135.425 232.72 145.381Z" fill="#BF6700"/>
<path d="M221.384 98.3489C220.763 98.3489 219.22 98.7054 215.846 101.073C211.916 103.833 206.803 108.392 200.881 113.667C179.188 132.999 146.404 162.214 103.967 167.076C88.4501 168.855 75.7477 169.487 65.5406 169.995C49.7839 170.781 39.3742 171.298 36.6398 175.517C34.0226 179.553 36.8149 188.937 41.8106 201.788C45.9158 212.349 54.4474 219.75 67.1677 223.789C100.104 234.244 156.79 220.107 201.961 190.173C225.723 174.427 239.71 157.832 242.413 142.181C244.53 129.918 239.121 122.531 238.891 122.224C238.758 122.049 238.641 121.848 238.556 121.647C238.462 121.425 231.5 105.287 221.747 98.415C221.743 98.4129 221.645 98.3489 221.384 98.3489ZM92.2391 232.657C82.3322 232.658 73.3555 231.42 65.5338 228.936C51.1782 224.38 41.5032 215.904 36.7764 203.745C30.7286 188.19 28.1941 178.617 32.1074 172.579C36.3458 166.041 46.6199 165.529 65.2716 164.602C75.4021 164.097 88.0083 163.469 103.353 161.711C144.09 157.043 176.105 128.513 197.29 109.636C211.457 97.0103 219.258 90.0547 224.858 94C235.257 101.329 242.362 116.876 243.404 119.252C244.6 120.97 249.992 129.613 247.77 142.892C244.852 160.356 230.441 177.779 204.946 194.675C182.764 209.375 156.756 220.949 131.714 227.266C117.478 230.856 104.183 232.657 92.2391 232.657Z" fill="#6D184E"/>
<path d="M28.0092 175.153C28.0092 175.153 12.4073 172.753 11.0069 183.353C9.60696 193.955 26.8091 189.755 26.6092 197.956C26.4091 206.157 26.209 216.959 43.8122 209.558C61.4142 202.157 66.2145 192.778 71.8161 202.269C77.4163 211.758 86.4179 210.158 90.618 201.156C94.8193 192.155 103.076 190.463 119.252 199.711C127.906 204.658 132.602 197.61 138.478 190.56C143.581 184.435 149.575 178.31 159.829 180.054C181.882 183.804 182.833 173.153 194.633 160.551C206.435 147.949 231.239 161.751 230.439 143.547C229.639 125.346 231.539 132.198 242.489 124.246C253.442 116.294 253.291 97.6916 231.838 99.3431C210.385 100.993 157.029 177.953 28.0092 175.153Z" fill="#48C75A"/>
<path d="M230.622 128.319C231.432 124.956 235.296 122.91 243.315 116.67C244.73 115.567 246.148 113.736 247.338 111.897C247.046 115.715 244.768 119.764 241.145 122.395C238.139 124.575 235.915 125.545 234.124 126.325C232.65 126.967 231.504 127.571 230.622 128.319Z" fill="#B6E9BD"/>
<path d="M174.383 177.647C181.447 173.817 184.811 165.712 192.646 156.745C202.519 145.445 220.9 152.667 228.02 146.351C227.81 147.599 227.38 148.571 226.718 149.291C224.642 151.553 219.86 151.757 214.797 151.971C207.345 152.287 198.898 152.647 192.962 158.985C190.23 161.904 188.054 164.732 186.134 167.227C182.227 172.303 179.365 176.026 174.383 177.647Z" fill="#B6E9BD"/>
<path d="M34.1303 209.744C32.8884 209.744 31.8941 209.497 31.1686 209.001C28.6713 207.298 28.7967 202.15 28.8973 198.012C29.0328 192.479 23.7694 190.842 19.9273 189.648C14.8473 188.068 12.8234 187.084 13.2765 183.654C13.5188 181.82 14.3049 180.427 15.6797 179.392C17.4978 178.024 20.1386 177.46 22.5434 177.279C29.3595 187.866 39.7758 193.751 51.947 193.751C53.4896 193.751 55.0625 193.656 56.657 193.465C71.7356 191.402 86.9002 188.184 102.037 183.843C102.626 184.647 103.206 185.445 103.778 186.234C105.314 188.348 106.803 190.4 108.309 192.318C105.875 191.61 103.648 191.259 101.615 191.259C100.017 191.259 98.5381 191.476 97.1755 191.91C93.461 193.089 90.557 195.874 88.5445 200.188C86.7962 203.934 84.0684 206.252 81.2481 206.389C81.1678 206.392 81.0887 206.393 81.0084 206.393C78.3677 206.393 75.815 204.54 73.7877 201.105C72.1164 198.273 70.3457 196.703 68.2157 196.168C67.6767 196.032 67.1378 195.969 66.5942 195.969C63.6436 195.969 60.5464 197.841 56.502 200.289C53.007 202.404 48.6577 205.037 42.9241 207.447C39.2955 208.973 36.326 209.744 34.1303 209.744ZM167.969 178.548C167.465 178.548 166.944 178.535 166.405 178.509C165.353 172.846 165.534 166.157 167.197 159.169C186.875 150.069 205.235 139.388 222.016 127.264C230.162 121.172 234.916 112.925 235.997 103.636C236.135 103.607 236.269 103.58 236.405 103.553C237.578 110.508 236.396 119.585 227.037 128.147C208.235 145.348 187.031 149.949 177.429 159.751C171.644 165.658 171.016 173.231 171.43 178.319C170.372 178.47 169.225 178.548 167.969 178.548Z" fill="#539256"/>
<path d="M24.4627 177.208C21.6614 177.208 18.0007 177.646 15.6797 179.392C14.3049 180.427 13.5188 181.82 13.2765 183.654C12.8234 187.084 14.8473 188.068 19.9273 189.648C23.7694 190.842 29.0328 192.479 28.8973 198.012C28.7967 202.15 28.6713 207.298 31.1686 209.001C33.1787 210.373 37.2437 209.835 42.9241 207.447C48.6577 205.037 53.007 202.404 56.502 200.289C61.291 197.39 64.7534 195.297 68.2157 196.168C70.3457 196.703 72.1164 198.273 73.7877 201.105C75.876 204.643 78.5225 206.504 81.2481 206.389C84.0684 206.252 86.7962 203.934 88.5445 200.188C90.557 195.874 93.461 193.089 97.1755 191.91C102.816 190.116 110.409 192.02 120.387 197.724C126.4 201.162 129.648 197.703 135.34 190.767C140.855 184.042 147.718 175.672 160.212 177.797C175.942 180.475 179.562 175.768 186.134 167.227C188.053 164.732 190.229 161.904 192.962 158.987C198.897 152.648 207.345 152.287 214.797 151.971C219.859 151.756 224.641 151.554 226.716 149.291C227.796 148.114 228.267 146.268 228.15 143.649C227.587 130.825 228.256 128.881 234.124 126.325C235.912 125.544 238.141 124.574 241.145 122.394C246.104 118.792 248.543 112.539 246.817 107.848C245.12 103.23 239.864 101.018 232.013 101.626C226.757 102.029 218.16 108.398 207.274 116.463C191.801 127.926 170.608 143.628 141.409 156.275C106.942 171.205 68.7653 178.33 27.9589 177.442C27.8605 177.44 27.7622 177.43 27.6638 177.417C26.9598 177.31 25.8107 177.208 24.4627 177.208ZM34.1071 214.311C31.9115 214.311 30.0799 213.802 28.5882 212.784C24.0333 209.677 24.1924 203.148 24.3203 197.9C24.3632 196.125 22.9212 195.374 18.5664 194.02C14.2527 192.679 7.73373 190.65 8.73729 183.055C9.14364 179.978 10.5581 177.511 12.9405 175.724C18.2974 171.707 26.8718 172.687 28.1961 172.868C120.79 174.834 173.216 135.995 204.55 112.785C216.92 103.621 225.092 97.5667 231.661 97.0598C245.765 95.9793 249.964 103.14 251.116 106.267C253.562 112.919 250.499 121.259 243.835 126.097C240.425 128.573 237.841 129.699 235.954 130.523C233.775 131.472 233.363 131.713 233.044 132.628C232.455 134.317 232.485 138.02 232.724 143.449C232.895 147.344 232.035 150.268 230.091 152.386C226.733 156.048 221.029 156.29 214.992 156.546C208.095 156.839 200.961 157.142 196.304 162.116C193.721 164.873 191.709 167.489 189.762 170.02C183.13 178.64 177.89 185.448 159.442 182.311C149.571 180.632 144.136 187.259 138.877 193.67C133.671 200.02 127.765 207.216 118.113 201.699C109.432 196.736 102.854 194.912 98.56 196.273C96.0819 197.06 94.1621 198.974 92.6919 202.125C90.2128 207.438 86.0171 210.742 81.4677 210.962C76.9682 211.186 72.838 208.506 69.8435 203.433C68.8489 201.747 67.9506 200.823 67.0975 200.608C65.4861 200.205 62.5673 201.97 58.8722 204.207C55.2494 206.399 50.7407 209.128 44.6986 211.668C40.5029 213.432 36.9921 214.311 34.1071 214.311Z" fill="#6D184E"/>
<path d="M195.069 61.5341C192.287 62.6469 189.896 64.4027 187.933 66.6509C175.987 74.8752 149.964 91.4351 116.947 104.484C84.0504 117.818 53.7878 123.788 39.4663 126.078C36.4943 125.808 33.5528 126.187 30.7709 127.3C18.081 132.379 13.5188 150.802 20.5817 168.445C27.6442 186.089 41.6721 192.957 56.3472 191.196C89.0031 186.731 118.19 177.328 142.061 167.219C166.314 158.065 193.929 144.731 220.644 125.431C232.483 116.58 237.897 101.93 230.835 84.2844C223.773 66.6406 207.759 56.4566 195.069 61.5341Z" fill="#DB2839"/>
<path d="M51.8546 189.182C38.7557 189.182 28.2705 181.495 22.7063 167.595C22.2825 166.536 21.9007 165.471 21.5605 164.402C22.4328 164.1 23.3279 163.801 24.2397 163.512C23.5933 166.464 23.4838 169.498 25.1324 172.004C26.7732 174.498 29.7382 175.914 34.1962 176.334C34.8493 176.395 35.4867 176.424 36.1092 176.424C45.3628 176.424 51.3179 169.938 55.7407 165.121C58.4494 162.171 61.0076 159.385 63.106 159.385C63.1219 159.385 63.1377 159.385 63.1524 159.385C64.3784 159.409 65.8304 160.401 67.469 162.332C73.2748 169.181 80.8685 172.905 88.9638 172.904C89.3276 172.904 89.6936 172.897 90.0599 172.881C91.0384 172.841 92.0068 172.745 92.9629 172.596C95.2069 175.019 97.2229 177.483 99.0987 179.919C84.7353 183.959 70.3573 186.97 56.074 188.924C54.64 189.096 53.2332 189.182 51.8546 189.182ZM62.3749 165.041C62.019 165.041 61.7049 165.23 61.4134 165.653C60.2573 167.328 57.7882 169.671 55.1892 171.92C53.4785 173.4 53.9891 176.141 56.0944 176.968C59.8584 178.448 63.871 179.162 67.9876 179.162C69.4464 179.162 70.9188 179.073 72.3969 178.895C72.4419 178.888 72.4872 178.883 72.5324 178.876C75.389 178.484 76.058 174.659 73.5188 173.294C67.0474 169.815 64.1727 165.041 62.3749 165.041ZM168.929 153.298C171.676 145.527 176.28 137.643 183.074 130.603C184.118 130.69 185.178 130.743 186.243 130.743C187.17 130.743 188.099 130.702 189.018 130.609C186.635 133.344 184.554 136.007 182.803 138.407C181.282 140.491 182.94 143.125 185.154 143.125C185.572 143.125 186.013 143.031 186.455 142.818C192.794 139.786 199.234 136.469 205.72 132.843C194.107 140.324 181.815 147.157 168.929 153.298ZM203.886 116.841C204.021 116.366 204.138 115.899 204.239 115.445C215.067 109.767 224.096 106.595 231.265 104.739C231.168 105.304 231.055 105.864 230.926 106.419C220.717 107.038 211.606 111.274 203.886 116.841Z" fill="#A92142"/>
<path d="M37.6369 128.283C35.5363 128.283 33.5192 128.664 31.6218 129.425C26.1866 131.601 22.2339 136.675 20.4914 143.711C18.681 151.022 19.4676 159.502 22.7073 167.594C28.8567 182.957 41.0167 190.729 56.0751 188.923C84.3523 185.056 112.994 177.042 141.169 165.112C141.196 165.099 141.223 165.088 141.252 165.078C169.879 154.273 196.139 140.308 219.305 123.576C231.419 114.517 234.858 100.497 228.708 85.1353C222.128 68.6911 207.416 59.0556 195.92 63.6609C193.538 64.6123 191.432 66.1253 189.656 68.1564C189.53 68.2994 189.389 68.4258 189.231 68.5357C176.698 77.164 150.751 93.5853 117.79 106.612C84.9625 119.92 54.8524 125.937 39.8281 128.339C39.6393 128.368 39.4471 128.374 39.2585 128.358C38.7126 128.308 38.1725 128.283 37.6369 128.283ZM51.947 193.751C36.9948 193.752 24.6905 184.869 18.4563 169.296C14.8641 160.321 14.0083 150.843 16.0471 142.611C18.1533 134.105 23.0801 127.912 29.9202 125.174C32.8908 123.984 36.0729 123.516 39.3804 123.773C54.3034 121.373 83.862 115.424 116.089 102.361C148.444 89.5748 173.946 73.483 186.404 64.9231C188.62 62.4526 191.248 60.5997 194.218 59.4079C208.059 53.8699 225.44 64.6454 232.959 83.4336C239.836 100.614 235.745 116.998 222.016 127.265C198.506 144.248 171.902 158.399 142.91 169.345C114.379 181.424 85.3592 189.54 56.657 193.465C55.0625 193.656 53.4896 193.751 51.947 193.751Z" fill="#6D184E"/>
<path d="M24.8087 146.549C24.8087 146.549 9.4065 152.75 5.6062 163.352C3.34835 169.649 9.84286 166.136 19.7226 162.623C26.4755 160.222 34.8092 157.82 43.0108 158.551C50.4993 159.218 53.3707 156.973 55.4555 154.728C58.9946 150.915 60.2658 147.101 78.016 157.55C106.221 174.153 108.821 201.757 128.023 202.256C135.714 202.458 140.131 199.978 143.129 197.5C147.613 193.789 148.91 190.08 153.226 195.357C160.428 204.157 174.079 202.557 166.578 186.655C159.077 170.752 163.828 135.747 197.834 116.345C231.837 96.9424 250.039 101.142 251.64 98.3431C253.242 95.5417 245.639 81.1387 221.436 80.7401C197.233 80.3393 136.425 142.149 24.8087 146.549Z" fill="#FCAF15"/>
<path d="M128.833 199.978C128.586 199.978 128.338 199.975 128.083 199.968C119.242 199.737 114.309 192.946 107.483 183.544C104.714 179.731 101.652 175.514 97.9344 171.289C102.727 169.494 106.955 166.261 110.083 161.882C113.042 157.74 115.604 156.157 118.77 156.157C121.838 156.157 125.473 157.646 130.58 159.739C133.807 161.059 137.464 162.557 141.723 163.93C144.496 164.822 147.217 165.262 149.815 165.262C154.435 165.262 158.667 163.872 162.114 161.168C161.646 162.049 161.229 162.936 160.858 163.823C156.715 166.041 152.643 166.866 148.726 166.866C143.08 166.866 137.761 165.152 133.039 163.439C128.315 161.725 124.19 160.012 120.926 160.012C119.109 160.012 117.559 160.543 116.322 161.901C111.91 166.745 107.557 171.583 104.897 173.075C112.797 183.828 117.622 192.872 128.501 193.155C128.768 193.161 129.028 193.166 129.286 193.166C136.629 193.166 140.793 190.402 143.6 187.64C146.405 184.877 147.853 182.115 149.765 182.115C150.726 182.115 151.802 182.811 153.227 184.551C155.795 187.69 159.182 189.502 162.138 189.815C163.449 193.742 163.228 196.544 162.097 198.318C159.862 197.984 157.137 196.52 154.999 193.907C153.738 192.366 152.001 190.58 149.733 190.45C149.647 190.446 149.558 190.442 149.472 190.442C147.263 190.442 145.653 191.995 143.954 193.642C141.176 196.335 137.397 199.978 128.833 199.978ZM7.65511 164.434C7.68591 164.339 7.72087 164.235 7.76113 164.123C9.14729 160.257 12.3495 156.987 15.6684 154.465C17.7499 154.422 19.906 154.258 22.0406 154.096C23.3614 153.997 24.609 153.901 25.8328 153.835C25.9536 153.828 26.0622 153.825 26.1594 153.825C26.4735 153.825 26.6724 153.856 26.7854 153.883C26.8972 154.666 26.2768 156.691 25.7661 158.278C21.5727 159.445 17.6968 160.905 14.3588 162.163C12.0168 163.045 9.22749 164.095 7.65511 164.434Z" fill="#D18126"/>
<path d="M43.29 158.571C55.5467 159.558 55.1819 152.601 59.7849 151.076C51.071 149.122 53.3948 157.571 43.29 158.571Z" fill="#F8CE36"/>
<path d="M5.37598 166.258C7.32203 169.265 22.1263 159.357 37.7853 158.48C24.975 157.702 12.0056 164.257 5.37598 166.258Z" fill="#F8CE36"/>
<path d="M163.041 189.866C162.746 189.866 162.444 189.849 162.137 189.817C161.809 188.833 161.384 187.78 160.852 186.654C158.231 181.096 157.284 172.413 160.859 163.824C161.167 163.657 161.478 163.485 161.786 163.304C160.515 172.352 161.423 181.089 164.508 187.631C164.81 188.271 165.078 188.893 165.309 189.494C164.619 189.743 163.852 189.866 163.041 189.866Z" fill="#FED78A"/>
<path d="M163.051 198.391C162.746 198.391 162.427 198.367 162.097 198.318C163.226 196.545 163.448 193.742 162.137 189.817C162.442 189.85 162.744 189.867 163.04 189.867C163.851 189.867 164.619 189.744 165.309 189.494C166.913 193.635 166.868 196.768 165.116 197.876C164.569 198.219 163.861 198.391 163.051 198.391ZM160.857 163.823C161.226 162.937 161.644 162.05 162.112 161.169C162.117 161.164 162.122 161.161 162.127 161.157C162 161.874 161.887 162.589 161.786 163.304C161.477 163.484 161.166 163.659 160.857 163.823Z" fill="#E8C093"/>
<path d="M169.996 140.087C169.77 137.924 169.312 135.707 168.614 133.467C167.592 130.184 168.185 129.447 168.212 129.417C168.479 129.109 169.191 128.993 170.132 128.993C171.931 128.993 174.569 129.417 176.544 129.735C176.828 129.78 177.117 129.826 177.412 129.873C174.405 133.29 171.97 136.743 169.996 140.087Z" fill="#D18126"/>
<path d="M61.6467 148.509C65.2084 148.509 70.4212 150.423 79.1775 155.578C93.1478 163.801 101.096 174.749 107.483 183.545C114.309 192.946 119.241 199.738 128.082 199.969C137.179 200.187 141.096 196.413 143.954 193.642C145.719 191.932 147.389 190.322 149.733 190.45C152 190.581 153.739 192.367 154.999 193.907C158.292 197.931 162.974 199.229 165.116 197.876C167.122 196.607 166.892 192.681 164.508 187.631C160.15 178.389 160.136 164.764 164.475 152.072C168.22 141.118 176.852 125.68 196.698 114.355C221.189 100.383 237.782 98.43 245.755 97.4926C247.134 97.3302 248.658 97.1505 249.496 96.96C249.325 96.1785 248.721 94.6132 246.991 92.6085C244.582 89.8158 237.264 83.2906 221.397 83.0287C214.034 82.8858 202.391 89.3589 186.263 98.2915C152.106 117.2 100.529 145.758 25.3185 148.82C23.0944 149.789 10.8676 155.458 7.76113 164.123C7.72087 164.235 7.68591 164.339 7.65511 164.434C9.22749 164.095 12.0168 163.045 14.3588 162.163C22.0257 159.274 32.5301 155.323 43.2142 156.27C50.47 156.92 52.4191 154.717 54.4814 152.388C56.4578 150.156 58.3437 148.509 61.6467 148.509ZM128.874 204.557C128.575 204.557 128.271 204.554 127.963 204.545C116.863 204.256 110.8 195.905 103.778 186.234C97.321 177.342 90.003 167.264 76.8554 159.523C69.7035 155.314 64.8378 153.205 61.9812 153.079C60.1347 153.009 59.4387 153.695 57.9087 155.423C55.5708 158.064 52.3661 161.678 42.8085 160.831C33.1616 159.97 23.2267 163.714 15.9722 166.447C9.58028 168.855 6.05836 170.183 3.91205 168.07C2.11624 166.303 3.12077 163.5 3.45113 162.579C7.5513 151.142 23.2867 144.695 23.9533 144.426C24.1975 144.329 24.4562 144.272 24.7184 144.262C99.0678 141.33 150.206 113.019 184.044 94.2842C200.796 85.0117 212.9 78.3156 221.473 78.452C238.643 78.7356 248.829 85.9817 252.635 92.6691C253.544 94.269 254.885 97.2804 253.629 99.4778C252.588 101.299 250.483 101.545 246.29 102.039C238.615 102.942 222.649 104.821 198.969 118.334C167.469 136.306 161.048 169.561 168.649 185.679C173.694 196.374 169.569 200.478 167.56 201.746C163.102 204.563 156.027 202.393 151.455 196.805C150.065 195.108 149.476 195.022 149.47 195.021C149.078 195.053 147.911 196.183 147.14 196.931C144.174 199.803 139.27 204.557 128.874 204.557Z" fill="#6D184E"/>
<path d="M145.801 176.079C145.801 176.079 138.82 189.061 128.502 187.479C120.673 186.278 133.755 187.806 137.152 178.329C141.076 167.376 147.822 173.078 145.801 176.079Z" fill="#F8CE36"/>
<path d="M34.4101 123.046C34.4101 123.046 6.80603 124.546 3.50555 139.848C0.205275 155.15 14.6072 152.15 25.7091 151.55C36.8103 150.95 15.2069 172.253 34.4101 174.053C42.4378 174.806 47.7904 170.21 52.1578 165.614C58.2372 159.217 62.4048 152.82 69.2152 160.851C80.9164 174.653 99.2189 173.154 108.22 160.552C117.222 147.95 124.722 156.051 142.425 161.752C160.128 167.453 172.13 152.45 166.429 134.147C163.598 125.061 169.716 126.328 177.659 127.594C185.717 128.879 195.652 130.163 200.032 120.646C208.733 101.743 190.131 98.443 212.335 93.9427C234.538 89.4404 244.139 87.9417 240.539 75.7905C236.939 63.6373 228.537 54.6367 200.333 66.6388C172.13 78.6389 146.625 131.148 34.4101 123.046Z" fill="#48C75A"/>
<path d="M29.9771 160.137C31.167 156.468 32.1782 153.301 30.429 151.028C29.5206 149.846 28.0774 149.249 26.1351 149.249C25.9566 149.249 25.7734 149.253 25.5858 149.263C24.3124 149.332 22.9822 149.433 21.6952 149.531C19.3753 149.707 16.9357 149.892 14.6746 149.892C14.4137 149.892 14.1546 149.89 13.8989 149.886C15.443 144.366 18.3144 138.98 13.1837 138.98C13.0421 138.98 12.8942 138.982 12.7401 138.992C10.5563 139.109 8.24564 139.319 5.9668 139.466C7.14762 135.525 10.351 132.672 14.2078 130.605C14.649 132.856 15.1605 135.08 15.7402 137.278C24.9067 141.918 34.7909 145.075 45.1983 146.842C41.0353 150.416 36.6994 157.185 29.9771 160.137ZM76.0302 158.056C73.4437 158.056 70.8232 157.626 68.2605 156.742C66.8919 155.694 65.519 155.078 64.1188 154.876C61.3097 153.299 58.6396 151.115 56.2461 148.292C56.2135 148.254 56.1806 148.216 56.1478 148.177C59.4147 148.425 62.7244 148.55 66.0682 148.55C76.2788 148.55 86.823 147.404 97.5511 145.184C96.7918 145.975 96.0268 146.908 95.2515 147.994C90.5982 154.51 83.4588 158.056 76.0302 158.056ZM136.844 150.42C134.529 150.42 132.055 150.029 129.458 149.193C121.31 146.57 115.322 143.437 110.356 142.049C118.405 139.78 126.514 136.935 134.625 133.547C134.658 133.532 134.692 133.518 134.726 133.504C134.734 133.5 134.744 133.496 134.754 133.492C134.781 133.482 134.801 133.474 134.827 133.462C134.837 133.458 134.847 133.454 134.859 133.45C134.883 133.44 134.909 133.428 134.934 133.418C134.942 133.414 134.95 133.412 134.958 133.408C134.99 133.393 135.024 133.379 135.057 133.367L135.059 133.365C135.095 133.351 135.131 133.335 135.165 133.321C135.167 133.319 135.169 133.319 135.171 133.319C135.204 133.305 135.234 133.291 135.268 133.277C135.272 133.275 135.28 133.273 135.286 133.269C135.314 133.256 135.345 133.244 135.375 133.232C135.379 133.23 135.385 133.228 135.389 133.226C135.421 133.212 135.455 133.198 135.49 133.184L135.492 133.182C135.564 133.152 135.633 133.121 135.705 133.091C135.707 133.091 135.711 133.089 135.713 133.089C135.746 133.075 135.778 133.061 135.81 133.047C135.814 133.045 135.816 133.045 135.82 133.043C135.963 132.982 136.104 132.924 136.245 132.862L136.249 132.86C136.572 132.723 136.892 132.586 137.212 132.447L137.218 132.445C137.359 132.384 137.5 132.322 137.643 132.261L137.647 132.257C137.789 132.197 137.928 132.136 138.071 132.076C138.075 132.072 138.075 132.072 138.079 132.07C138.22 132.007 138.357 131.949 138.498 131.886C138.502 131.884 138.504 131.884 138.508 131.882C138.538 131.868 138.572 131.854 138.602 131.84C138.609 131.838 138.609 131.838 138.613 131.836C138.715 131.792 138.822 131.743 138.925 131.699C138.929 131.697 138.933 131.695 138.937 131.691C138.967 131.679 138.997 131.667 139.026 131.653C139.03 131.651 139.038 131.649 139.042 131.645C139.078 131.631 139.106 131.616 139.14 131.602H139.142C139.211 131.57 139.281 131.54 139.35 131.51C139.356 131.506 139.362 131.504 139.368 131.502C139.394 131.49 139.424 131.475 139.451 131.465C139.459 131.461 139.465 131.459 139.471 131.455C139.497 131.443 139.529 131.431 139.555 131.419C139.561 131.415 139.568 131.413 139.576 131.409C139.642 131.381 139.707 131.351 139.773 131.32C139.781 131.316 139.793 131.31 139.803 131.308C139.825 131.298 139.85 131.286 139.874 131.276C139.884 131.27 139.894 131.268 139.904 131.262C139.928 131.252 139.948 131.242 139.972 131.232C139.985 131.226 139.995 131.222 140.005 131.218C140.031 131.205 140.059 131.193 140.085 131.181C140.089 131.179 140.097 131.175 140.103 131.173C140.136 131.159 140.17 131.143 140.202 131.129C140.21 131.125 140.218 131.121 140.226 131.119C140.248 131.107 140.275 131.097 140.299 131.087C140.309 131.081 140.323 131.075 140.335 131.068C140.355 131.06 140.373 131.05 140.394 131.042C140.41 131.036 140.422 131.03 140.438 131.022C140.456 131.014 140.472 131.008 140.49 131C140.504 130.992 140.52 130.986 140.535 130.98C140.551 130.972 140.567 130.964 140.583 130.958C140.613 130.944 140.647 130.927 140.678 130.915C140.69 130.909 140.706 130.901 140.718 130.895C140.738 130.887 140.754 130.879 140.774 130.871C140.786 130.865 140.798 130.859 140.811 130.853C140.831 130.845 140.851 130.835 140.869 130.827C140.881 130.823 140.893 130.817 140.903 130.813C140.925 130.801 140.946 130.792 140.968 130.782C140.97 130.782 140.972 130.78 140.974 130.78C141.054 130.742 141.137 130.706 141.22 130.668C141.222 130.668 141.226 130.666 141.23 130.664C141.256 130.651 141.284 130.639 141.31 130.627L141.312 130.625C145.72 128.615 150.01 126.483 154.168 124.237C157.394 138.67 149.534 150.42 136.844 150.42ZM173.392 115.922C171.813 115.922 170.209 115.793 168.63 115.604C176.191 110.621 183.18 105.212 189.498 99.4093C189.293 101.873 188.61 104.734 187.066 108.087C184.195 114.322 178.941 115.922 173.392 115.922ZM207.123 79.8062C210.558 75.0837 213.598 70.1799 216.205 65.1109C216.036 64.7462 215.865 64.3816 215.693 64.0189C218.159 63.5253 220.424 63.2775 222.483 63.2775C224.431 63.2775 226.196 63.4991 227.77 63.9444C230.399 73.9736 223.39 76.4174 207.123 79.8062Z" fill="#539256"/>
<path d="M88.9656 168.327C88.8931 168.327 88.8194 168.325 88.7443 168.325C92.8016 166.545 96.437 163.652 99.2282 159.744C102.933 154.557 106.4 152.684 110.353 152.684C111.216 152.684 112.106 152.773 113.025 152.939C110.784 154.104 108.586 156.103 106.356 159.221C102.427 164.724 96.4175 168.035 89.8693 168.307C89.5677 168.32 89.2673 168.327 88.9656 168.327Z" fill="#A4E3AD"/>
<path d="M151.221 160.649C160.139 156.536 163.564 145.282 160.91 131.764C159.857 126.405 162.191 125.071 166.154 125.071C166.299 125.071 166.443 125.071 166.59 125.075C165.887 125.383 165.27 125.822 164.751 126.419C162.689 128.798 163.473 132.358 164.242 134.828C166.882 143.298 165.469 151.58 160.556 156.445C158.025 158.953 154.837 160.368 151.221 160.649ZM186.414 126.161C185.918 126.161 185.409 126.148 184.892 126.124C189.604 125.424 193.894 123.166 196.521 117.457C205.742 97.4257 186.03 93.9279 209.558 89.158C225.713 85.8836 235.567 84.1068 238.924 79.1446C239.16 81.2027 238.711 82.3052 238.291 83.0002C235.991 86.8268 227.258 88.5912 214.041 91.2616L211.879 91.6981C204.34 93.2267 200.974 94.6891 199.466 97.0926C198.076 99.3038 198.67 101.629 199.295 104.092C200.221 107.731 201.373 112.259 197.954 119.689C195.656 124.68 191.614 126.161 186.414 126.161Z" fill="#A4E3AD"/>
<path d="M26.134 149.25C28.0766 149.25 29.5196 149.846 30.4281 151.029C32.1896 153.318 31.1524 156.514 29.9512 160.216C28.8529 163.599 27.6077 167.436 28.958 169.489C29.775 170.73 31.6802 171.498 34.6238 171.774C42.7179 172.531 47.8458 166.95 52.3692 162.023C55.8157 158.269 59.0612 154.703 63.2443 154.807C65.8773 154.859 68.4017 156.352 70.9612 159.371C76.0957 165.427 82.8114 168.603 89.8693 168.307C96.4175 168.035 102.427 164.724 106.356 159.221C114.29 148.116 121.85 151.216 132.315 155.502C135.466 156.792 139.035 158.255 143.128 159.573C150.073 161.808 156.262 160.699 160.556 156.445C165.468 151.581 166.88 143.298 164.242 134.828C163.472 132.358 162.689 128.8 164.753 126.419C167.199 123.597 171.865 124.346 177.27 125.214C186.839 126.75 194.441 127.321 197.953 119.688C201.375 112.259 200.221 107.729 199.295 104.091C198.668 101.63 198.076 99.3033 199.465 97.0919C200.974 94.6896 204.339 93.2276 211.879 91.6981L214.041 91.2616C227.259 88.5908 235.991 86.8282 238.292 83.0014C238.867 82.0467 239.496 80.3305 238.345 76.4407C236.53 70.3165 233.842 66.5945 229.883 64.7294C223.83 61.8781 214.188 63.2292 201.23 68.745C194.548 71.5879 187.802 76.9799 179.993 83.2258C167.801 92.9692 152.63 105.1 129.869 113.958C103.255 124.316 72.0244 128.038 34.4012 125.34C32.3841 125.481 8.52731 127.424 5.74318 140.331C4.99019 143.824 5.23062 146.308 6.45861 147.716C8.88817 150.504 15.6918 149.988 21.6943 149.533C22.9815 149.434 24.3114 149.334 25.5849 149.264C25.7725 149.254 25.9555 149.25 26.134 149.25ZM36.1092 176.424C35.4867 176.424 34.8493 176.395 34.1962 176.334C29.7382 175.914 26.7732 174.498 25.1324 172.004C22.5742 168.115 24.2493 162.952 25.5963 158.803C26.125 157.172 26.9097 154.754 26.7854 153.883C26.6363 153.848 26.3432 153.807 25.8323 153.836C24.6085 153.902 23.361 153.997 22.0401 154.097C14.6201 154.659 6.94558 155.242 3.00794 150.725C0.7477 148.134 0.178493 144.416 1.26802 139.366C4.89493 122.55 33.088 120.825 34.2858 120.76C34.3819 120.756 34.479 120.756 34.5751 120.764C118.161 126.794 152.244 99.5445 177.134 79.6486C185.205 73.195 192.177 67.6205 199.438 64.5321C213.85 58.3995 224.447 57.1092 231.834 60.5878C237.058 63.0509 240.522 67.6729 242.734 75.1399C243.984 79.3612 243.814 82.7034 242.215 85.3617C238.873 90.9152 229.868 92.7342 214.947 95.7492L212.79 96.1856C207.201 97.3185 204.025 98.4431 203.343 99.5278C203.013 100.05 203.278 101.173 203.733 102.962C204.719 106.84 206.211 112.699 202.113 121.604C196.866 132.998 184.636 131.034 176.544 129.734C173.535 129.253 168.989 128.519 168.212 129.417C168.185 129.446 167.592 130.185 168.613 133.466C171.811 143.728 170.002 153.534 163.777 159.699C158.291 165.135 150.252 166.676 141.723 163.93C137.464 162.559 133.807 161.06 130.58 159.739C120.203 155.487 115.908 153.728 110.083 161.882C105.327 168.542 98.0275 172.55 90.0599 172.881C81.5554 173.233 73.536 169.488 67.469 162.332C65.8304 160.401 64.3784 159.409 63.1524 159.385C63.1377 159.385 63.1219 159.385 63.106 159.385C61.0076 159.385 58.4494 162.171 55.7407 165.121C51.3179 169.938 45.3628 176.424 36.1092 176.424Z" fill="#6D184E"/>
<path d="M134.625 133.547C171.644 118.076 201.156 94.388 216.204 65.1105C199.482 28.9581 163.166 3.72367 120.877 3.04171C62.1263 2.09628 13.2482 49.2927 12.2237 108.043C12.0475 118.166 13.2851 127.967 15.7402 137.278C49.039 154.134 91.8357 151.426 134.625 133.547Z" fill="#F9A332"/>
<path d="M135.271 4.24074C135.269 4.24074 135.271 4.24073 135.269 4.23852L135.271 4.24074ZM134.611 4.14136C134.604 4.14136 134.597 4.13914 134.593 4.13914C134.6 4.14135 134.602 4.14136 134.611 4.14136ZM134.56 4.13472C134.549 4.13251 134.542 4.13253 134.531 4.13032C134.54 4.13253 134.551 4.13251 134.56 4.13472ZM134.505 4.1259C134.494 4.1259 134.485 4.12369 134.474 4.12148C134.485 4.12369 134.491 4.12369 134.505 4.1259ZM134.445 4.11706C134.434 4.11706 134.427 4.11486 134.416 4.11486C134.425 4.11486 134.434 4.11706 134.445 4.11706ZM134.385 4.11044C134.374 4.10823 134.37 4.10822 134.359 4.10601C134.368 4.10601 134.374 4.10823 134.385 4.11044ZM134.33 4.10159C134.319 4.09939 134.308 4.0994 134.297 4.09719C134.308 4.0994 134.317 4.09939 134.33 4.10159ZM134.271 4.09277C134.262 4.09277 134.251 4.09056 134.24 4.08835C134.253 4.09056 134.259 4.09277 134.271 4.09277ZM134.153 4.07731C134.142 4.0751 134.136 4.0751 134.127 4.07289C134.136 4.0751 134.145 4.0751 134.153 4.07731ZM134.096 4.06847C134.085 4.06626 134.072 4.06628 134.061 4.06407C134.074 4.06628 134.083 4.06626 134.096 4.06847ZM133.981 4.05303C133.961 4.05082 133.946 4.0486 133.926 4.04418C133.944 4.04639 133.964 4.05082 133.981 4.05303ZM133.913 4.04418C133.895 4.03977 133.882 4.03976 133.864 4.03534C133.88 4.03755 133.897 4.04198 133.913 4.04418ZM133.849 4.03534C133.835 4.03313 133.822 4.03093 133.805 4.02872C133.822 4.03093 133.833 4.03313 133.849 4.03534ZM133.787 4.02652C133.776 4.02431 133.76 4.02211 133.747 4.0199C133.763 4.02211 133.774 4.02431 133.787 4.02652ZM133.725 4.01768C133.712 4.01547 133.703 4.01326 133.69 4.01326C133.701 4.01326 133.714 4.01547 133.725 4.01768ZM133.61 4.00222C133.597 4.00001 133.581 3.9978 133.57 3.99559C133.581 3.9978 133.599 4.00001 133.61 4.00222ZM133.376 3.96909C133.361 3.96909 133.345 3.9669 133.332 3.96469C133.345 3.9669 133.363 3.96909 133.376 3.96909ZM133.319 3.96247C133.303 3.96026 133.29 3.95806 133.27 3.95585C133.288 3.95806 133.303 3.96026 133.319 3.96247ZM133.259 3.95365C133.239 3.95144 133.224 3.94921 133.204 3.947C133.222 3.94921 133.241 3.95144 133.259 3.95365ZM133.204 3.947C133.184 3.9448 133.164 3.94259 133.144 3.94038C133.164 3.94259 133.182 3.9448 133.204 3.947ZM133.144 3.94038C133.023 3.92272 132.906 3.90727 132.784 3.89402C132.903 3.90727 133.023 3.92272 133.144 3.94038ZM132.78 3.89179C132.76 3.88959 132.744 3.88738 132.725 3.88517C132.74 3.88738 132.762 3.88959 132.78 3.89179ZM132.72 3.88517C132.7 3.88297 132.683 3.88076 132.663 3.87855C132.683 3.88076 132.703 3.88297 132.72 3.88517ZM132.539 3.86309C132.521 3.85867 132.504 3.85648 132.482 3.85427C132.504 3.85648 132.519 3.85867 132.539 3.86309ZM132.482 3.85427C132.462 3.85206 132.444 3.84983 132.424 3.84763C132.442 3.84983 132.464 3.85206 132.482 3.85427ZM132.422 3.84763C129.151 3.44128 125.839 3.1829 122.486 3.0791C125.839 3.1829 129.154 3.44128 132.422 3.84763ZM122.484 3.0791C122.464 3.0791 122.444 3.0791 122.424 3.0791C122.443 3.0791 122.465 3.0791 122.484 3.0791ZM122.422 3.0791C122.402 3.07689 122.383 3.0769 122.363 3.0769C122.382 3.0769 122.403 3.07689 122.422 3.0791ZM122.361 3.0769C122.341 3.07469 122.324 3.07468 122.303 3.07468C122.32 3.07468 122.344 3.07469 122.361 3.0769ZM122.296 3.07468C122.281 3.07468 122.259 3.07248 122.243 3.07248C122.26 3.07248 122.279 3.07468 122.296 3.07468ZM122.234 3.07248C122.219 3.07248 122.197 3.07249 122.182 3.07028C122.198 3.07249 122.217 3.07248 122.234 3.07248ZM122.173 3.07028C122.153 3.07028 122.138 3.07028 122.118 3.07028C122.137 3.07028 122.154 3.07028 122.173 3.07028ZM122.113 3.07028C122.095 3.06807 122.075 3.06806 122.057 3.06806C122.074 3.06806 122.096 3.06807 122.113 3.07028ZM121.676 3.05702C121.658 3.05702 121.639 3.05702 121.621 3.05702C121.641 3.05702 121.657 3.05702 121.676 3.05702ZM121.617 3.05702C121.596 3.05702 121.582 3.05482 121.562 3.05482C121.581 3.05482 121.598 3.05702 121.617 3.05702ZM121.55 3.05482C121.534 3.05482 121.517 3.05482 121.501 3.05482C121.518 3.05482 121.533 3.05482 121.55 3.05482ZM121.487 3.05482C121.472 3.05261 121.457 3.0526 121.441 3.0526C121.456 3.0526 121.473 3.05261 121.487 3.05482ZM121.425 3.0526C121.41 3.0526 121.396 3.0526 121.381 3.0526C121.395 3.0526 121.41 3.0526 121.425 3.0526ZM121.363 3.0504C121.35 3.0504 121.336 3.0504 121.324 3.0504C121.338 3.0504 121.348 3.0504 121.363 3.0504ZM121.3 3.0504C121.287 3.0504 121.275 3.05041 121.263 3.0482C121.275 3.05041 121.289 3.0504 121.3 3.0504ZM121.24 3.0482C121.228 3.0482 121.214 3.0482 121.202 3.0482C121.213 3.0482 121.228 3.0482 121.24 3.0482ZM121.18 3.0482C121.168 3.0482 121.154 3.04598 121.141 3.04598C121.155 3.04598 121.165 3.0482 121.18 3.0482ZM121.119 3.04598C121.105 3.04598 121.095 3.04598 121.083 3.04598C121.095 3.04598 121.107 3.04598 121.119 3.04598ZM121.058 3.04598C121.046 3.04598 121.033 3.04598 121.021 3.04378C121.032 3.04598 121.046 3.04598 121.058 3.04598ZM120.998 3.04378C120.982 3.04378 120.967 3.04378 120.952 3.04378C120.969 3.04378 120.981 3.04378 120.998 3.04378ZM120.938 3.04378C120.918 3.04378 120.899 3.04392 120.877 3.04171C120.897 3.04392 120.919 3.04378 120.938 3.04378ZM120.877 3.04171C120.824 3.04171 120.769 3.04156 120.716 3.03935C120.77 3.04156 120.823 3.04171 120.877 3.04171ZM118.321 3.03051C118.461 3.03051 118.601 3.02831 118.742 3.02831C118.757 3.02831 118.773 3.02831 118.789 3.02831C118.632 3.03052 118.478 3.03051 118.321 3.03051Z" fill="#FFF6AF"/>
<path d="M22.9598 63.3328C40.2194 27.9873 76.412 3.51376 117.92 3.04116C118.054 3.03675 118.186 3.03453 118.32 3.03232C118.477 3.03232 118.631 3.03012 118.788 3.03012C118.799 3.03012 118.81 3.03012 118.821 3.03012C118.935 3.03012 119.049 3.03012 119.165 3.03012C119.68 3.03012 120.197 3.03454 120.715 3.04116C120.768 3.04116 120.823 3.04336 120.876 3.04336C120.898 3.04336 120.917 3.04338 120.937 3.04558C120.942 3.04558 120.945 3.04558 120.951 3.04558C120.966 3.04558 120.982 3.04558 120.997 3.04558C121.004 3.04558 121.012 3.04558 121.02 3.04558C121.032 3.04558 121.045 3.04558 121.057 3.04779C121.064 3.04779 121.074 3.04779 121.082 3.04779C121.094 3.04779 121.105 3.04779 121.118 3.04779C121.125 3.04779 121.133 3.04779 121.14 3.04779C121.153 3.04779 121.167 3.0478 121.179 3.05001C121.187 3.05001 121.193 3.05001 121.201 3.05001C121.213 3.05001 121.227 3.05001 121.239 3.05001C121.247 3.05001 121.255 3.05001 121.262 3.05001C121.274 3.05001 121.287 3.05 121.299 3.05221C121.307 3.05221 121.316 3.05221 121.323 3.05221C121.335 3.05221 121.349 3.05221 121.362 3.05221C121.367 3.05221 121.376 3.0526 121.381 3.0526C121.396 3.0526 121.41 3.0544 121.424 3.0544C121.432 3.0544 121.433 3.0544 121.44 3.0544C121.456 3.0544 121.471 3.05482 121.487 3.05482C121.492 3.05482 121.496 3.05482 121.501 3.05482C121.517 3.05703 121.533 3.05663 121.549 3.05663C121.551 3.05663 121.559 3.05663 121.561 3.05663C121.581 3.05663 121.595 3.05662 121.616 3.05883H121.62C121.638 3.05883 121.657 3.05883 121.675 3.05883C121.677 3.05883 121.681 3.05924 121.684 3.05924C121.807 3.06366 121.927 3.06545 122.05 3.06987C122.053 3.06987 122.054 3.06987 122.056 3.06987C122.074 3.06987 122.095 3.07028 122.113 3.07028C122.116 3.07028 122.116 3.07028 122.118 3.07028C122.138 3.07249 122.152 3.07209 122.173 3.07209C122.175 3.07209 122.178 3.07209 122.182 3.07209C122.196 3.07209 122.218 3.07429 122.234 3.07429C122.236 3.07429 122.24 3.07429 122.243 3.07429C122.258 3.07429 122.28 3.07428 122.296 3.07649C122.3 3.07649 122.298 3.07649 122.302 3.07649C122.323 3.07649 122.34 3.0765 122.36 3.07871C122.362 3.07871 122.359 3.0765 122.362 3.07871C122.383 3.07871 122.402 3.0791 122.422 3.0791H122.424C122.445 3.08131 122.463 3.08091 122.483 3.08091C122.485 3.08091 122.482 3.08091 122.486 3.08091C125.838 3.18471 129.15 3.44308 132.421 3.84943H132.423C132.443 3.85164 132.461 3.85387 132.481 3.85607C132.503 3.85828 132.52 3.86049 132.54 3.86269L132.545 3.86489C132.582 3.86931 132.62 3.87374 132.662 3.87816C132.681 3.88258 132.699 3.88256 132.719 3.88698C132.721 3.88698 132.721 3.88698 132.723 3.88698C132.743 3.88919 132.759 3.89139 132.779 3.8936C132.781 3.8936 132.781 3.8936 132.783 3.8936C132.905 3.90906 133.024 3.92453 133.143 3.93999C133.163 3.9444 133.183 3.9466 133.203 3.94881C133.223 3.95102 133.238 3.95324 133.258 3.95545C133.26 3.95545 133.269 3.95765 133.271 3.95765C133.289 3.95986 133.302 3.96207 133.32 3.96427C133.324 3.96427 133.324 3.96429 133.331 3.96649C133.344 3.96649 133.359 3.96868 133.375 3.97089C133.382 3.9731 133.386 3.97311 133.393 3.97311C133.406 3.97532 133.419 3.97753 133.435 3.97974C133.439 3.97974 133.446 3.98194 133.45 3.98194C133.468 3.98415 133.479 3.98636 133.492 3.98636C133.496 3.98857 133.505 3.98858 133.51 3.98858C133.525 3.99079 133.538 3.99299 133.554 3.9952C133.558 3.9952 133.565 3.9974 133.569 3.9974C133.58 3.99961 133.596 4.00181 133.609 4.00402C133.616 4.00402 133.622 4.00403 133.629 4.00624C133.642 4.00845 133.653 4.00845 133.666 4.01066C133.675 4.01287 133.68 4.01286 133.689 4.01286C133.702 4.01507 133.711 4.01728 133.724 4.01948C133.73 4.01948 133.739 4.0217 133.748 4.0217C133.759 4.02391 133.775 4.0261 133.786 4.0261C133.79 4.02831 133.801 4.02832 133.806 4.03052C133.821 4.03273 133.834 4.03274 133.85 4.03495C133.854 4.03715 133.859 4.03715 133.863 4.03715C133.881 4.03936 133.896 4.04158 133.912 4.04379C133.916 4.04379 133.923 4.04599 133.925 4.04599C133.945 4.0482 133.96 4.05041 133.98 4.05483C133.984 4.05483 133.987 4.05483 133.991 4.05483C134.009 4.05704 134.022 4.05924 134.04 4.06145C134.044 4.06366 134.053 4.06366 134.06 4.06587C134.071 4.06587 134.084 4.06806 134.097 4.07027C134.106 4.07248 134.117 4.07249 134.126 4.07469C134.137 4.07469 134.143 4.07692 134.152 4.07692C134.161 4.07912 134.174 4.08131 134.183 4.08131C134.194 4.08352 134.203 4.08573 134.212 4.08573C134.221 4.08794 134.23 4.08795 134.241 4.09016C134.249 4.09236 134.26 4.09237 134.269 4.09458C134.278 4.09679 134.289 4.09679 134.296 4.099C134.307 4.099 134.318 4.10119 134.329 4.1034C134.338 4.1034 134.349 4.10561 134.358 4.10782C134.369 4.10782 134.373 4.11004 134.384 4.11004C134.393 4.11225 134.406 4.11444 134.415 4.11444C134.426 4.11665 134.433 4.11886 134.444 4.11886C134.453 4.12107 134.464 4.12328 134.475 4.12328C134.484 4.12549 134.492 4.1255 134.503 4.1277C134.512 4.12991 134.521 4.12992 134.53 4.13213C134.541 4.13433 134.548 4.13431 134.559 4.13652C134.567 4.13652 134.583 4.13874 134.592 4.14094C134.596 4.14094 134.603 4.14316 134.609 4.14316C134.623 4.14537 134.636 4.14758 134.649 4.14979C134.654 4.14979 134.658 4.14978 134.665 4.15199C134.678 4.1542 134.693 4.1564 134.707 4.15861C134.709 4.15861 134.711 4.15861 134.713 4.15861C134.802 4.17186 134.897 4.18513 134.985 4.19837C134.987 4.19837 134.987 4.19837 134.989 4.19837C135.027 4.205 135.064 4.20941 135.102 4.21604C135.12 4.21825 135.137 4.22044 135.155 4.22486H135.159C135.175 4.22707 135.192 4.22929 135.21 4.2315C135.212 4.2315 135.215 4.2337 135.217 4.2337C135.234 4.23591 135.248 4.23812 135.268 4.24032C135.27 4.24032 135.268 4.24032 135.27 4.24032C135.29 4.24474 135.303 4.24696 135.323 4.24916C135.325 4.24916 135.325 4.24916 135.327 4.24916C135.345 4.25358 135.365 4.25578 135.38 4.25799C135.4 4.2602 135.418 4.26462 135.435 4.26683H135.438C168.888 9.39033 197.229 30.019 212.906 58.5825C194.707 33.1638 166.388 15.4899 133.843 11.4287C133.154 15.3618 126.657 18.447 118.741 18.447C110.964 18.447 104.558 15.4701 103.681 11.6363C84.4892 14.3151 66.7427 21.7861 51.7342 32.806C51.7611 32.7552 51.7883 32.7067 51.8144 32.6559V32.6581C51.6573 32.8016 51.5012 32.9474 51.3453 33.0931C40.173 41.368 30.532 51.6216 22.9598 63.3328Z" fill="#FCD199"/>
<path d="M134.624 133.548C134.658 133.533 134.692 133.52 134.725 133.505C134.692 133.52 134.656 133.533 134.624 133.548ZM134.753 133.494C134.778 133.483 134.8 133.475 134.825 133.464C134.799 133.475 134.78 133.483 134.753 133.494ZM134.857 133.45C134.881 133.439 134.909 133.429 134.931 133.419C134.907 133.429 134.882 133.439 134.857 133.45ZM134.957 133.409C134.991 133.394 135.02 133.381 135.054 133.367C135.023 133.381 134.99 133.395 134.957 133.409ZM135.059 133.365C135.094 133.351 135.128 133.337 135.164 133.322C135.129 133.337 135.094 133.351 135.059 133.365ZM135.17 133.319C135.201 133.306 135.235 133.293 135.266 133.278C135.233 133.293 135.202 133.306 135.17 133.319ZM135.285 133.271C135.316 133.259 135.342 133.247 135.373 133.234C135.343 133.246 135.314 133.259 135.285 133.271ZM135.387 133.227C135.421 133.213 135.454 133.2 135.487 133.185C135.455 133.2 135.421 133.213 135.387 133.227ZM135.49 133.184C135.563 133.153 135.631 133.124 135.703 133.093C135.633 133.124 135.562 133.153 135.49 133.184ZM135.712 133.09C135.744 133.077 135.777 133.062 135.809 133.049C135.775 133.062 135.746 133.077 135.712 133.09ZM136.248 132.861C136.571 132.723 136.889 132.586 137.212 132.448C136.891 132.586 136.569 132.724 136.248 132.861ZM137.217 132.445C137.359 132.384 137.499 132.324 137.641 132.262C137.5 132.322 137.358 132.385 137.217 132.445ZM138.077 132.071C138.215 132.011 138.358 131.948 138.497 131.888C138.356 131.949 138.218 132.009 138.077 132.071ZM138.508 131.882C138.537 131.869 138.57 131.855 138.601 131.841C138.572 131.855 138.537 131.869 138.508 131.882ZM138.61 131.838C138.713 131.792 138.82 131.745 138.923 131.7C138.82 131.745 138.714 131.792 138.61 131.838ZM138.936 131.694C138.968 131.679 138.993 131.669 139.024 131.654C138.996 131.667 138.965 131.681 138.936 131.694ZM139.042 131.647C139.076 131.632 139.106 131.619 139.14 131.604C139.106 131.619 139.077 131.632 139.042 131.647ZM139.469 131.457C139.498 131.444 139.525 131.432 139.554 131.419C139.528 131.432 139.497 131.444 139.469 131.457ZM139.802 131.309C139.826 131.297 139.848 131.287 139.873 131.277C139.849 131.287 139.824 131.299 139.802 131.309ZM139.904 131.264C139.926 131.253 139.949 131.243 139.971 131.233C139.948 131.243 139.927 131.252 139.904 131.264ZM140.003 131.218C140.03 131.206 140.056 131.195 140.083 131.183C140.058 131.193 140.028 131.208 140.003 131.218ZM140.102 131.174C140.133 131.159 140.169 131.143 140.2 131.13C140.168 131.145 140.134 131.159 140.102 131.174ZM140.225 131.12C140.25 131.108 140.272 131.098 140.297 131.087C140.274 131.098 140.249 131.109 140.225 131.12ZM140.436 131.024C140.454 131.017 140.47 131.008 140.489 131.001C140.47 131.008 140.454 131.015 140.436 131.024ZM140.533 130.98C140.548 130.973 140.566 130.966 140.582 130.958C140.564 130.966 140.55 130.973 140.533 130.98ZM140.676 130.916C140.69 130.908 140.704 130.904 140.717 130.897C140.705 130.902 140.689 130.91 140.676 130.916ZM140.773 130.872C140.784 130.867 140.799 130.86 140.809 130.854C140.798 130.86 140.784 130.866 140.773 130.872ZM141.218 130.669C141.22 130.667 141.223 130.667 141.228 130.665C141.225 130.666 141.22 130.667 141.218 130.669Z" fill="#5B6D54"/>
<path d="M66.0867 148.543C57.8967 148.543 49.9212 147.804 42.2473 146.29C38.4605 145.355 34.7508 144.228 31.1349 142.889C24.469 140.422 19.6947 134.509 18.6109 127.483C17.6935 121.532 17.2662 115.42 17.3748 109.189C17.8979 79.1797 30.9132 52.1948 51.3461 33.0921C51.4759 32.9948 51.6047 32.8996 51.7348 32.8044C43.9898 47.25 39.4629 63.6686 39.159 81.1082C39.1533 81.4363 39.1487 81.7645 39.1464 82.0927C38.9917 100.389 51.9992 116.109 69.9774 119.52C77.4015 120.928 85.1003 121.615 93.0023 121.615C114.825 121.615 138.196 116.374 161.56 106.612C178.143 99.6822 193.213 91.0971 206.157 81.1062C190.956 101.404 168.364 118.28 141.312 130.625L141.309 130.628C141.282 130.64 141.256 130.652 141.228 130.665C141.224 130.667 141.222 130.668 141.218 130.668C141.135 130.706 141.056 130.743 140.973 130.779C140.971 130.781 140.969 130.783 140.967 130.783C140.945 130.793 140.924 130.802 140.904 130.812C140.892 130.816 140.879 130.823 140.869 130.827C140.849 130.837 140.831 130.844 140.811 130.854C140.801 130.858 140.784 130.866 140.772 130.87C140.752 130.879 140.738 130.887 140.718 130.895C140.704 130.903 140.692 130.907 140.678 130.915C140.645 130.928 140.614 130.944 140.582 130.958C140.566 130.964 140.55 130.972 140.533 130.98C140.519 130.986 140.504 130.993 140.489 131.001C140.471 131.009 140.454 131.014 140.438 131.022C140.424 131.028 140.408 131.034 140.394 131.042C140.373 131.05 140.353 131.06 140.335 131.068C140.323 131.075 140.311 131.079 140.299 131.087C140.273 131.097 140.25 131.108 140.225 131.118C140.215 131.122 140.208 131.126 140.2 131.13C140.17 131.142 140.134 131.158 140.104 131.174C140.096 131.176 140.092 131.178 140.084 131.18C140.057 131.195 140.031 131.205 140.005 131.218C139.995 131.222 139.982 131.227 139.972 131.233C139.95 131.243 139.928 131.253 139.904 131.264C139.893 131.268 139.884 131.272 139.874 131.276C139.849 131.286 139.826 131.296 139.802 131.308C139.794 131.312 139.782 131.316 139.771 131.322C139.705 131.351 139.64 131.381 139.576 131.409C139.568 131.413 139.561 131.415 139.555 131.419C139.527 131.431 139.5 131.444 139.47 131.456C139.464 131.46 139.458 131.462 139.452 131.464C139.423 131.476 139.394 131.489 139.368 131.502C139.36 131.504 139.356 131.506 139.35 131.51C139.281 131.54 139.21 131.571 139.142 131.602H139.14C139.107 131.618 139.076 131.631 139.042 131.647C139.038 131.649 139.03 131.65 139.024 131.654C138.994 131.666 138.969 131.679 138.937 131.693C138.931 131.695 138.929 131.698 138.923 131.7C138.822 131.744 138.714 131.792 138.611 131.837C138.607 131.839 138.607 131.838 138.602 131.84C138.57 131.852 138.538 131.869 138.508 131.881C138.503 131.883 138.501 131.885 138.497 131.885C138.358 131.948 138.216 132.009 138.079 132.07C138.077 132.072 138.071 132.074 138.071 132.076C137.929 132.137 137.788 132.197 137.647 132.258C137.645 132.26 137.645 132.26 137.643 132.26C137.499 132.323 137.361 132.382 137.217 132.444C137.215 132.447 137.212 132.447 137.212 132.447C136.89 132.586 136.571 132.722 136.249 132.86L136.245 132.862C136.103 132.922 135.961 132.984 135.819 133.044C135.815 133.044 135.813 133.047 135.809 133.049C135.776 133.063 135.744 133.074 135.712 133.089C135.71 133.091 135.705 133.093 135.703 133.093C135.63 133.123 135.565 133.152 135.492 133.182C135.492 133.184 135.491 133.184 135.487 133.184C135.455 133.198 135.422 133.212 135.387 133.227C135.383 133.229 135.38 133.23 135.374 133.232C135.343 133.247 135.317 133.257 135.285 133.269C135.279 133.271 135.272 133.275 135.266 133.277C135.236 133.291 135.202 133.305 135.171 133.318C135.169 133.318 135.167 133.32 135.165 133.32C135.129 133.336 135.094 133.35 135.06 133.364C135.056 133.366 135.056 133.366 135.056 133.366C135.021 133.38 134.993 133.393 134.958 133.407C134.948 133.411 134.94 133.415 134.932 133.417C134.91 133.427 134.881 133.44 134.859 133.45C134.849 133.454 134.837 133.457 134.827 133.463C134.8 133.474 134.778 133.482 134.753 133.494C134.743 133.496 134.734 133.502 134.726 133.504C134.692 133.52 134.659 133.532 134.624 133.546C111.263 143.309 87.905 148.543 66.0867 148.543Z" fill="#BF6700"/>
<path d="M51.3457 33.091C51.5016 32.945 51.6573 32.802 51.8144 32.6581V32.6559C51.7882 32.7065 51.762 32.7538 51.7348 32.8044C51.6049 32.8997 51.4756 32.9957 51.3457 33.091Z" fill="#D19982"/>
<path d="M66.6677 43.8993C65.5603 47.3811 63.6473 49.9293 62.4291 49.5427C61.2111 49.1541 61.1207 45.9708 62.228 42.487C63.3342 39.0052 65.2484 36.4569 66.4666 36.8436C67.6079 37.2082 67.773 40.0329 66.8428 43.3163L66.6677 43.8993Z" fill="#FCE69F"/>
<path d="M84.7451 46.1425C84.1203 49.7446 82.5699 52.5278 81.3099 52.3091C80.0511 52.0904 79.5291 48.9475 80.1539 45.3473C80.7799 41.7451 82.3303 38.9619 83.5891 39.1806C84.77 39.3854 85.3157 42.1625 84.8399 45.5421L84.7451 46.1425Z" fill="#FCE69F"/>
<path d="M108.083 45.419C108.592 49.0389 107.97 52.1638 106.704 52.3407C105.437 52.5196 103.978 49.6869 103.469 46.0671C102.961 42.4492 103.585 39.3243 104.849 39.1474C106.036 38.9804 107.407 41.4552 107.99 44.8187L108.083 45.419Z" fill="#FCE69F"/>
<path d="M127.6 37.9351C129.534 41.0358 130.23 44.1446 129.147 44.821C128.063 45.4974 125.578 43.5005 123.646 40.3998C121.71 37.2991 121.013 34.1903 122.097 33.5139C123.114 32.88 125.372 34.5873 127.267 37.4247L127.6 37.9351Z" fill="#FCE69F"/>
<path d="M142.567 25.5235C145.16 28.1016 146.548 30.9687 145.645 31.8756C144.743 32.7803 141.872 31.4043 139.281 28.8262C136.69 26.2481 135.3 23.381 136.202 22.4742C137.048 21.626 139.635 22.7716 142.131 25.1004L142.567 25.5235Z" fill="#FCE69F"/>
<path d="M69.0748 103.002C67.8582 103.002 66.8752 102.017 66.8752 100.802C66.8752 99.5854 67.8582 98.6008 69.0748 98.6008C70.2897 98.6008 71.2743 99.5854 71.2743 100.802C71.2743 102.017 70.2897 103.002 69.0748 103.002Z" fill="#BF6700"/>
<path d="M104.562 82.0991C103.348 82.0991 102.362 81.1137 102.362 79.899C102.362 78.6825 103.348 77.6971 104.562 77.6971C105.777 77.6971 106.763 78.6825 106.763 79.899C106.763 81.1137 105.777 82.0991 104.562 82.0991Z" fill="#BF6700"/>
<path d="M111.834 104.997C110.617 104.997 109.634 104.012 109.634 102.798C109.634 101.583 110.617 100.597 111.834 100.597C113.048 100.597 114.033 101.583 114.033 102.798C114.033 104.012 113.048 104.997 111.834 104.997Z" fill="#E99335"/>
<path d="M133.066 78.0637C131.851 78.0637 130.867 77.0786 130.867 75.8627C130.867 74.6485 131.851 73.6633 133.066 73.6633C134.282 73.6633 135.268 74.6485 135.268 75.8627C135.268 77.0786 134.282 78.0637 133.066 78.0637Z" fill="#E99335"/>
<path d="M155.781 96.0711C154.566 96.0711 153.58 95.0857 153.58 93.8722C153.58 92.6554 154.566 91.6716 155.781 91.6716C156.998 91.6716 157.983 92.6554 157.983 93.8722C157.983 95.0857 156.998 96.0711 155.781 96.0711Z" fill="#BF6700"/>
<path d="M158.724 62.7785C157.509 62.7785 156.524 61.7936 156.524 60.5789C156.524 59.3623 157.509 58.3774 158.724 58.3774C159.941 58.3774 160.924 59.3623 160.924 60.5789C160.924 61.7936 159.941 62.7785 158.724 62.7785Z" fill="#BF6700"/>
<path d="M174.54 43.9234C173.325 43.9234 172.339 42.9391 172.339 41.7245C172.339 40.51 173.325 39.5237 174.54 39.5237C175.754 39.5237 176.741 40.51 176.741 41.7245C176.741 42.9391 175.754 43.9234 174.54 43.9234Z" fill="#BF6700"/>
<path d="M69.5146 80.1506C68.2999 80.1506 67.3145 79.1655 67.3145 77.9495C67.3145 76.7353 68.2999 75.7502 69.5146 75.7502C70.7304 75.7502 71.7159 76.7353 71.7159 77.9495C71.7159 79.1655 70.7304 80.1506 69.5146 80.1506Z" fill="#E99335"/>
<path d="M196.122 64.6471C194.907 64.6471 193.923 63.6627 193.923 62.4479C193.923 61.2332 194.907 60.2469 196.122 60.2469C197.339 60.2469 198.323 61.2332 198.323 62.4479C198.323 63.6627 197.339 64.6471 196.122 64.6471Z" fill="#BF6700"/>
<path d="M181.855 88.6759C180.641 88.6759 179.654 87.6895 179.654 86.4748C179.654 85.2601 180.641 84.2755 181.855 84.2755C183.07 84.2755 184.055 85.2601 184.055 86.4748C184.055 87.6895 183.07 88.6759 181.855 88.6759Z" fill="#E99335"/>
<path d="M119.132 5.318C62.274 5.318 15.5065 51.0664 14.5122 108.084C14.4069 114.132 14.8217 120.207 15.7461 126.14C16.6997 132.264 20.8717 137.4 26.636 139.546C56.5549 150.675 94.592 147.793 133.742 131.434C166.984 117.544 192.795 97.6715 208.381 73.9628C211.942 68.5508 212.096 61.4943 208.773 55.9888C189.996 24.852 157.123 5.91441 120.841 5.33137C120.271 5.32246 119.7 5.318 119.132 5.318ZM66.0335 150.841C51.3118 150.841 37.5664 148.496 25.0391 143.836C17.7247 141.115 12.4302 134.603 11.2218 126.843C10.2578 120.655 9.82474 114.315 9.93467 108.004C10.4407 78.9832 22.2944 51.8163 43.3124 31.5102C64.3249 11.2107 91.8845 0.270961 120.914 0.753856C139.728 1.0565 158.207 6.23262 174.358 15.7214C190.04 24.9365 203.297 38.0437 212.694 53.6233C216.92 60.6308 216.729 69.6012 212.209 76.4774C196.118 100.952 169.594 121.416 135.506 135.658C115.759 143.911 96.347 148.856 77.8079 150.356C73.819 150.679 69.8924 150.841 66.0335 150.841Z" fill="#6D184E"/>
<path d="M184.849 218.342C183.531 225.456 176.693 230.153 169.579 228.834C162.466 227.514 157.767 220.677 159.089 213.563C159.863 209.383 161.538 210.332 164.272 211.281C166.19 211.948 168.627 212.614 171.639 211.507C180.239 208.349 186.168 211.228 184.849 218.342Z" fill="#FCAF15"/>
<path d="M169.557 228.829C169.555 228.829 169.555 228.829 169.555 228.829H169.557Z" fill="#FFF6AF"/>
<path d="M178.319 219.783C178.64 218.985 178.885 218.144 179.049 217.266C179.658 213.982 178.708 211.615 176.678 210.313C177.127 210.27 177.56 210.25 177.98 210.25C182.9 210.25 185.778 213.141 184.862 218.263C185.155 216.627 185.048 215.225 184.624 214.063C183.133 216.354 180.894 218.463 178.319 219.783ZM184.853 218.316C184.853 218.314 184.855 218.31 184.855 218.307C184.855 218.31 184.853 218.313 184.853 218.316Z" fill="#FED78A"/>
<path d="M169.579 228.834C169.572 228.831 169.564 228.831 169.556 228.83C169.563 228.831 169.572 228.831 169.579 228.834ZM184.849 218.342C184.85 218.334 184.852 218.325 184.853 218.316C184.852 218.325 184.85 218.333 184.849 218.342Z" fill="#D18126"/>
<path d="M169.556 228.83C162.455 227.5 157.769 220.67 159.088 213.563C159.088 213.56 159.089 213.555 159.089 213.551C159.494 211.388 160.139 210.607 161.05 210.486C162.367 215.124 165.965 220.088 171.027 221.027C171.631 221.139 172.233 221.192 172.835 221.192C174.732 221.192 176.601 220.662 178.319 219.783C176.404 224.538 171.846 227.736 166.742 227.956C167.627 228.342 168.565 228.643 169.556 228.83Z" fill="#D18126"/>
<path d="M171.983 229.056C171.191 229.056 170.385 228.983 169.579 228.834C169.57 228.831 169.563 228.831 169.556 228.83L169.555 228.829C168.566 228.643 167.628 228.342 166.742 227.956C171.848 227.736 176.402 224.538 178.319 219.783C180.894 218.463 183.133 216.354 184.624 214.063C185.047 215.226 185.156 216.627 184.864 218.263C184.864 218.264 184.864 218.265 184.864 218.265C184.861 218.274 184.86 218.282 184.859 218.291C184.857 218.297 184.857 218.303 184.855 218.307C184.855 218.31 184.853 218.314 184.853 218.316C184.852 218.325 184.85 218.334 184.849 218.342C184.67 219.313 184.384 220.242 184.012 221.114C181.976 225.877 177.269 229.022 172.067 229.056C172.037 229.056 172.011 229.056 171.983 229.056Z" fill="#D29D78"/>
<path d="M172.065 229.056C177.27 229.022 181.978 225.877 184.012 221.114C181.978 225.878 177.27 229.023 172.065 229.056Z" fill="#D3B392"/>
<path d="M161.641 212.811C161.559 213.028 161.447 213.393 161.338 213.982C160.812 216.821 161.422 219.695 163.056 222.076C164.692 224.455 167.157 226.056 169.995 226.583C172.836 227.109 175.709 226.5 178.09 224.863C180.471 223.229 182.07 220.764 182.598 217.925C182.855 216.533 182.892 214.646 181.604 213.558C179.938 212.152 176.423 212.191 172.427 213.657C168.325 215.165 165.072 214.002 162.919 213.232C162.513 213.087 161.996 212.901 161.641 212.811ZM172.001 231.347C171.058 231.347 170.108 231.26 169.159 231.084C165.12 230.335 161.612 228.057 159.283 224.668C156.955 221.28 156.085 217.189 156.836 213.147C157.129 211.571 157.676 209.642 159.332 208.689C161.049 207.7 162.862 208.35 164.462 208.922C166.351 209.596 168.304 210.294 170.849 209.36C176.553 207.265 181.548 207.52 184.556 210.059C186.874 212.015 187.777 215.106 187.098 218.76C186.35 222.802 184.07 226.31 180.683 228.638C178.088 230.42 175.082 231.347 172.001 231.347Z" fill="#6D184E"/>
<path d="M201.885 128.112C202.81 128.537 203.891 128.428 204.768 127.914C208.39 125.786 219.959 118.754 221.907 114.606C224.079 109.981 195.347 125.109 201.885 128.112Z" fill="#E5525F"/>
</svg>
